<?xml version="1.0" encoding="UTF-8"?><svg id="Capa_2" xmlns="http://www.w3.org/2000/svg" viewBox="0 0 483.18 334.14"><defs><style>.cls-1{fill:#fff;}.cls-2{fill:#00e0c6;}.cls-3{fill:#009393;}.cls-4{opacity:.5;}.cls-5{fill:#016170;}.cls-6{opacity:.2;}.cls-7{opacity:.3;}.cls-8{fill:#7cc5a5;}</style></defs><g id="Car"><g><g><path class="cls-5" d="M38.56,154.44s-6.33-6.39-8.14,32.26c-1.71,36.48-4.22,89.07,4.54,111.64,.95,2.44,2.63,4.54,4.86,5.91,1.81,1.12,4.33,2.24,7.6,2.75,7.63,1.19,37.78,.52,37.78,.52,0,0,17.11,0,17.37-14.09,.21-11.59,0-36.8,0-36.8L38.56,154.44Z"/><g class="cls-7"><path d="M38.56,154.44s-6.33-6.39-8.14,32.26c-1.71,36.48-4.22,89.07,4.54,111.64,.95,2.44,2.63,4.54,4.86,5.91,1.81,1.12,4.33,2.24,7.6,2.75,7.63,1.19,37.78,.52,37.78,.52,0,0,17.11,0,17.37-14.09,.21-11.59,0-36.8,0-36.8L38.56,154.44Z"/></g></g><g><path class="cls-5" d="M386.85,154.44s-6.33-6.39-8.14,32.26c-1.71,36.48-4.22,89.07,4.54,111.64,.95,2.44,2.63,4.54,4.86,5.91,1.81,1.12,4.33,2.24,7.59,2.75,7.63,1.19,37.78,.52,37.78,.52,0,0,17.11,0,17.37-14.09,.21-11.59,0-36.8,0-36.8l-64.01-102.19Z"/><g class="cls-7"><path d="M386.85,154.44s-6.33-6.39-8.14,32.26c-1.71,36.48-4.22,89.07,4.54,111.64,.95,2.44,2.63,4.54,4.86,5.91,1.81,1.12,4.33,2.24,7.59,2.75,7.63,1.19,37.78,.52,37.78,.52,0,0,17.11,0,17.37-14.09,.21-11.59,0-36.8,0-36.8l-64.01-102.19Z"/></g></g><path class="cls-5" d="M479.96,87.58s-1.92,6.53-5.86,7.21c-3.95,.68-35.06,1.63-35.06,1.63l-3.04,6.26h-5.86l-4.26-25.11,3.63,.75c1.24,.26,2.28,1.1,2.78,2.27h0c.55,1.29,1.76,2.18,3.15,2.32l44.53,4.66Z"/><path class="cls-3" d="M478.66,88.55c2.31-.18,4-2.27,3.67-4.57-1.02-7.17-4.78-21.11-18.63-23.17-12.26-1.83-21.16-1.27-25.86-.66-2.15,.28-3.22,2.23-3.47,4.39-1.18,9.86-.23,22.09,2.62,23.59,2.97,1.57,31.56,1.23,41.67,.43Z"/><path class="cls-5" d="M460.1,60.87s.31,.33,.79,.99c.48,.65,1.14,1.63,1.92,2.86,1.56,2.46,3.53,5.98,5.29,10.06,1.76,4.08,2.98,7.93,3.7,10.75,.36,1.41,.62,2.56,.77,3.36,.15,.8,.22,1.24,.18,1.25-.04,0-.17-.42-.38-1.21-.2-.78-.52-1.92-.92-3.31-.81-2.78-2.07-6.58-3.82-10.64-1.76-4.05-3.66-7.58-5.13-10.07-.73-1.25-1.35-2.25-1.78-2.94-.43-.69-.65-1.08-.62-1.1Z"/><g><path class="cls-5" d="M472.93,180.62s6.33-6.39,8.14,32.26c1.71,36.48,4.22,89.07-4.54,111.64-.95,2.44-2.63,4.54-4.86,5.91-1.81,1.12-4.33,2.24-7.59,2.75-7.63,1.19-37.78,.52-37.78,.52,0,0-17.11,0-17.37-14.09-.21-11.59,0-36.8,0-36.8l64.01-102.19Z"/><path class="cls-1" d="M472.93,180.62s-.09,.17-.29,.5c-.21,.34-.5,.82-.89,1.46-.8,1.29-1.96,3.18-3.48,5.63-3.06,4.92-7.52,12.08-13.15,21.12-11.29,18.07-27.26,43.63-46,73.61l.04-.13c0,10.98,0,22.5,.01,34.43,0,1.49-.06,3,.19,4.45,.22,1.46,.68,2.89,1.41,4.18,1.45,2.61,3.96,4.53,6.75,5.7,5.65,2.53,12.09,1.78,18.37,2.01,6.62,.06,13.17,.08,19.62-.1,3.21-.12,6.44-.17,9.52-.74,1.54-.31,3.04-.79,4.45-1.43,1.41-.65,2.77-1.43,3.87-2.49,1.11-1.05,2.01-2.31,2.64-3.69,.33-.68,.53-1.43,.78-2.15,.24-.73,.48-1.45,.72-2.18,.26-.72,.44-1.46,.62-2.2,.18-.74,.36-1.48,.54-2.21,.4-1.46,.64-2.95,.91-4.43,.59-2.94,.91-5.9,1.31-8.8,.18-1.46,.29-2.91,.43-4.36,.13-1.44,.29-2.88,.37-4.31,.81-11.44,.92-22.36,.85-32.56-.09-10.21-.38-19.71-.71-28.39-.34-8.67-.69-16.52-1.02-23.41-.37-6.88-.92-12.8-1.69-17.59-.78-4.77-1.72-8.49-3.07-10.66-.34-.53-.7-.97-1.09-1.25-.39-.29-.79-.39-1.11-.37-.65,.07-.89,.39-.89,.36,0,0,.05-.07,.19-.16,.14-.09,.37-.22,.7-.25,.33-.03,.76,.07,1.16,.35,.4,.28,.78,.72,1.13,1.26,1.39,2.19,2.37,5.91,3.18,10.68,.8,4.8,1.38,10.72,1.78,17.61,.36,6.89,.74,14.74,1.1,23.41,.35,8.68,.67,18.19,.77,28.4,.09,10.21,0,21.14-.8,32.6-.07,1.43-.23,2.87-.36,4.32-.14,1.45-.25,2.91-.43,4.37-.39,2.92-.72,5.88-1.31,8.84-.26,1.48-.51,2.98-.91,4.45-.18,.74-.36,1.48-.54,2.23-.17,.75-.36,1.49-.62,2.22-.24,.73-.48,1.46-.73,2.2-.25,.73-.45,1.48-.8,2.2-.66,1.44-1.6,2.75-2.76,3.85-1.16,1.11-2.57,1.92-4.01,2.58-1.45,.67-2.99,1.15-4.56,1.47-3.17,.58-6.39,.63-9.61,.75-6.46,.18-13.01,.16-19.64,.1-3.16-.05-6.3-.1-9.42-.14-3.15-.08-6.27-.7-9.15-1.91-2.86-1.2-5.48-3.19-6.99-5.93-.76-1.35-1.23-2.85-1.46-4.36-.25-1.52-.18-3.03-.19-4.52,0-11.93,0-23.46,.01-34.44v-.07l.04-.06c18.8-29.95,34.83-55.48,46.17-73.53,5.67-9,10.17-16.14,13.26-21.04,1.54-2.43,2.73-4.3,3.54-5.58,.4-.62,.71-1.1,.92-1.43,.21-.32,.32-.48,.32-.48Z"/></g><path class="cls-5" d="M10.14,180.62s-6.33-6.39-8.14,32.26c-1.71,36.48-4.22,89.07,4.54,111.64,.95,2.44,2.63,4.54,4.86,5.91,1.81,1.12,4.33,2.24,7.59,2.75,7.63,1.19,37.78,.52,37.78,.52,0,0,17.11,0,17.37-14.09,.21-11.59,0-36.8,0-36.8L10.14,180.62Z"/><path class="cls-3" d="M478.81,147.32l-14.01-9.2c-3.18-14.31-29.16-44-29.16-44,0,0-27.04-65.21-50.37-80.59C361.95-1.86,248.01,.08,248.01,.08l-6.03,.09S121.23-1.86,97.91,13.52c-23.33,15.38-50.37,80.59-50.37,80.59,0,0-25.98,29.69-29.16,44l-14.01,9.2C1.54,149.18-.11,152.38,0,155.77c.85,24.15,5.5,120.04,13.6,130.8,7.76,10.3,81.07,4.84,101,4.81,28.59-.05,117.61-1.22,117.61-1.22l130.83-.32c14.84-1.59,96.46,8.39,106.53-3.27,8.8-10.19,12.75-106.65,13.6-130.8,.12-3.39-1.54-6.59-4.37-8.45Z"/><path class="cls-1" d="M378.94,17.9c-.59-1.03-1.67-1.68-2.85-1.74l-132.47-5.68h0l-1.04-.04-.02,.09-135.58,5.63c-1.19,.05-2.26,.71-2.85,1.74l-34.54,60.27c-1.17,2.03,.26,4.58,2.6,4.64,3.79,.11,9.42,.17,15.95-.1,10.62-.44,95.12-.24,139.72-.09l-.02,.09s5.17-.02,13.69-.05c8.52,.03,13.69,.05,13.69,.05l-.02-.09c44.6-.14,129.1-.34,139.72,.09,6.88,.28,12.74,.21,16.53,.09,2.08-.07,3.34-2.33,2.31-4.14l-34.82-60.76Z"/><path class="cls-5" d="M3.11,87.58s1.92,6.53,5.86,7.21,35.06,1.63,35.06,1.63l3.04,6.26h5.86l4.26-25.11-3.63,.75c-1.24,.26-2.28,1.1-2.78,2.27h0c-.55,1.29-1.76,2.18-3.15,2.32L3.11,87.58Z"/><polygon class="cls-3" points="82.45 71.36 401.05 70.5 403.64 76.83 249.69 77.84 79.46 76.73 82.45 71.36"/><g class="cls-4"><polygon points="82.45 71.36 400.14 70.5 403.64 76.83 249.69 77.84 79.46 76.73 82.45 71.36"/></g><g><path class="cls-5" d="M201.84,72.81c0-3.48-1.34-13.31-4.56-15.93-2.49-2.02-8.38-2.63-11.29-2.8-.09,0-.18,0-.28,0-1.54,.02-11.84,.29-14.92,2.8-3.22,2.62-4.57,12.45-4.56,15.93v.1c0,2.16,1.75,3.91,3.92,3.91h27.78c2.16,0,3.92-1.75,3.92-3.91v-.1Z"/><g class="cls-7"><path d="M201.84,72.81c0-3.48-1.34-13.31-4.56-15.93-2.49-2.02-8.38-2.63-11.29-2.8-.09,0-.18,0-.28,0-1.54,.02-11.84,.29-14.92,2.8-3.22,2.62-4.57,12.45-4.56,15.93v.1c0,2.16,1.75,3.91,3.92,3.91h27.78c2.16,0,3.92-1.75,3.92-3.91v-.1Z"/></g></g><path class="cls-5" d="M187.81,70.25c0-5.69-2.19-21.78-7.47-26.07-4.08-3.31-13.72-4.3-18.48-4.58-.15,0-.3-.01-.45,0-2.52,.03-19.38,.48-24.43,4.59-5.28,4.29-7.47,20.39-7.47,26.07v.17c0,3.54,2.87,6.41,6.41,6.41h45.48c3.54,0,6.41-2.87,6.41-6.41v-.17Z"/><g class="cls-7"><path d="M132.11,236.63s-102-13.41-106.15-13.91c-6.3-.76-9.68,3.32-9.68,8.18,0,3.42-.46,16.49-.73,23.92-.16,4.38,2.05,8.53,5.83,10.76,2.18,1.28,5.1,2.61,8.98,3.75,8.58,2.52,60.28,4.91,70.99,5.38,1.25,.06,2.48-.38,3.42-1.21,3.86-3.4,14.19-12.68,17.44-17.28,10.65-15.06,9.9-19.6,9.9-19.6h0Zm-52.95,27.88l-49.31-7.99,1.94-27.01,66.99,6.08-19.61,28.91Z"/></g><g class="cls-7"><path d="M17.82,167.29s-5.05,15.34,27.05,22.48c32.5,7.23,80.59,20.33,80.59,20.33l-25.83-18.41s-74.3-12.39-76.15-23.76c-2.12-13,0-27.61,0-27.61l-5.66,26.97Z"/></g><path class="cls-5" d="M143.2,236.17s-.12-.01-.35-.07c-.26-.06-.59-.14-1.02-.24-.92-.23-2.23-.56-3.9-.98-3.39-.83-8.29-2.05-14.39-3.39-12.18-2.73-29.11-6.07-47.91-9.13-9.4-1.52-18.37-2.93-26.56-4-4.09-.56-7.97-1.09-11.61-1.59-3.63-.51-7.03-1-10.13-.92-3.09,.07-5.9,.79-7.89,2.25-2.01,1.41-3.41,3.07-4.34,4.53-1.86,2.97-1.84,5.04-1.94,4.99,0,0,0-.49,.21-1.39,.2-.9,.64-2.21,1.56-3.71,.91-1.5,2.3-3.2,4.34-4.66,2.02-1.53,4.91-2.3,8.04-2.38,3.15-.1,6.56,.37,10.19,.86,3.64,.48,7.53,1,11.62,1.55,8.19,1.04,17.17,2.43,26.58,3.96,18.81,3.06,35.74,6.45,47.9,9.28,6.09,1.39,10.98,2.67,14.36,3.56,1.66,.46,2.96,.82,3.87,1.08,.42,.12,.75,.22,1,.29,.23,.07,.34,.11,.34,.12Z"/><path class="cls-5" d="M13.73,196.51s-.04-.2-.05-.57c-.01-.43-.03-.97-.05-1.64-.03-1.42-.04-3.48,0-6.03,.06-5.09,.34-12.12,1.02-19.86,.69-7.74,1.66-14.71,2.49-19.73,.42-2.51,.79-4.54,1.07-5.93,.14-.65,.25-1.18,.34-1.6,.08-.37,.13-.56,.15-.55,.02,0,0,.2-.05,.57-.06,.43-.14,.96-.24,1.62-.23,1.48-.53,3.49-.91,5.95-.74,5.03-1.65,11.99-2.34,19.72-.68,7.72-1.02,14.74-1.17,19.82-.06,2.49-.12,4.53-.16,6.02-.02,.66-.04,1.21-.05,1.64-.02,.37-.03,.57-.05,.57Z"/><path class="cls-5" d="M36.06,127.41s-.05-.44-.04-1.23c0-.4,.01-.88,.09-1.44,.07-.56,.1-1.2,.23-1.9,.42-2.8,1.36-6.6,2.66-10.71,1.29-4.11,2.68-7.76,3.73-10.38,.53-1.31,.98-2.36,1.3-3.08,.33-.72,.53-1.11,.56-1.09,.03,.01-.1,.43-.37,1.17-.31,.84-.69,1.89-1.15,3.13-.97,2.65-2.29,6.31-3.58,10.4-1.29,4.09-2.29,7.86-2.79,10.62-.52,2.76-.54,4.51-.64,4.51Z"/><path class="cls-2" d="M42.12,134.41s-16.73-6.1-18.87,6.87c-2.14,12.97-1.92,25.88,.89,30.41,2.81,4.54,28.64,10.72,28.64,10.72l44.67,9.82s3.21,.67,1.28-2.97c-2.17-4.07-14-30.17-20.84-36.51-12.62-11.71-35.77-18.35-35.77-18.35Z"/><g class="cls-7"><path d="M58.6,183.7s.07-30.57-2.17-33.96-28.57-15.58-28.57-15.58c0,0,2.56-2.18,7.82-1.18s14.01,3.38,21.27,7.11c7.27,3.73,18.9,9.07,23.24,15.25,1.89,2.68,5.84,9.1,9.61,16.06,4.9,9.05,9.54,18.73,9.54,19.26,0,1.11,.26,2.12-4.08,1.2-10.06-2.15-36.66-8.14-36.66-8.14Z"/></g><g><g><circle class="cls-2" cx="73.16" cy="170.1" r="10.84"/><path class="cls-5" d="M84,170.1c-.07,0,0-.97-.44-2.62-.42-1.62-1.51-4.01-3.95-5.85-1.21-.9-2.73-1.66-4.48-1.96-1.74-.29-3.7-.23-5.57,.48-.94,.33-1.84,.82-2.68,1.45-.84,.61-1.61,1.37-2.23,2.25-1.3,1.73-2.03,3.96-2.05,6.25,.02,2.29,.75,4.52,2.05,6.25,.63,.88,1.39,1.64,2.23,2.25,.83,.62,1.74,1.12,2.68,1.45,1.87,.71,3.83,.77,5.57,.48,1.75-.3,3.27-1.07,4.48-1.97,2.44-1.84,3.53-4.22,3.95-5.85,.43-1.65,.37-2.63,.44-2.62,0,0,.13,.97-.24,2.67-.37,1.67-1.43,4.15-3.93,6.09-1.24,.95-2.81,1.76-4.63,2.1-1.81,.32-3.86,.28-5.81-.45-.98-.34-1.94-.85-2.81-1.5-.88-.64-1.69-1.43-2.35-2.35-1.37-1.81-2.14-4.15-2.16-6.56,.02-2.41,.8-4.74,2.16-6.55,.66-.92,1.47-1.71,2.35-2.35,.87-.65,1.82-1.16,2.81-1.5,1.96-.73,4-.78,5.81-.45,1.82,.34,3.39,1.15,4.63,2.1,2.5,1.94,3.56,4.42,3.93,6.09,.37,1.7,.24,2.67,.24,2.67Z"/></g><path class="cls-8" d="M73.16,169.63c3.98,0,7.44,2.21,9.23,5.46,.83-1.51,1.3-3.23,1.3-5.07,0-5.82-4.72-10.54-10.54-10.54s-10.54,4.72-10.54,10.54c0,1.84,.47,3.57,1.3,5.07,1.79-3.26,5.25-5.46,9.23-5.46Z"/><g><path class="cls-1" d="M77.83,169.74c0,2.58-2.09,4.67-4.67,4.67s-4.67-2.09-4.67-4.67,2.09-4.67,4.67-4.67,4.67,2.09,4.67,4.67Z"/><path class="cls-5" d="M77.83,169.74c-.05,0-.04-.42-.24-1.12-.2-.69-.67-1.69-1.71-2.45-1-.77-2.64-1.19-4.22-.59-1.57,.55-2.92,2.21-2.9,4.16-.02,1.95,1.33,3.62,2.9,4.16,1.58,.59,3.22,.17,4.22-.6,1.04-.76,1.51-1.76,1.71-2.45,.2-.7,.19-1.12,.24-1.12,.02,0,.03,.1,.04,.3,.01,.2,0,.49-.09,.86-.14,.73-.59,1.83-1.69,2.69-1.05,.87-2.85,1.39-4.61,.75-1.75-.58-3.28-2.43-3.26-4.61-.02-2.18,1.51-4.04,3.26-4.61,1.76-.63,3.56-.11,4.61,.75,1.09,.87,1.54,1.96,1.69,2.69,.08,.37,.1,.67,.09,.86,0,.2-.02,.3-.04,.3Z"/></g><path class="cls-1" d="M77.25,162.41c-.19,.33-1.17,.04-2.65-.05-1.47-.11-3.51,.05-5.38,1.04-1.86,1-3.14,2.6-3.87,3.88-.75,1.28-1.06,2.25-1.44,2.23-.33,0-.7-1.11-.28-2.9,.4-1.74,1.78-4.13,4.36-5.51,2.58-1.37,5.34-1.18,7.01-.54,1.72,.64,2.43,1.57,2.25,1.85Z"/><path class="cls-1" d="M79.96,164.12c-.59,.41-1.14,.65-1.24,.56-.1-.1,.13-.65,.52-1.25,.39-.6,.99-.91,1.29-.62,.3,.29,.01,.9-.58,1.31Z"/></g><path class="cls-5" d="M243.77,136.01s-.14,.02-.43,.03c-.31,0-.72,.01-1.26,.02-1.13,.01-2.75,.02-4.83,.04-4.22,.01-10.29,.04-17.77,.06-15.03,0-35.74,0-58.62,0-11.45-.02-22.35-.04-32.28-.06-4.96-.01-9.67-.03-14.08-.04-2.2,0-4.33-.02-6.38-.02-2.03-.13-3.96,.44-5.41,1.57-2.87,2.41-5.46,4.59-7.74,6.51-1.14,.96-2.21,1.85-3.19,2.67-1.03,.79-2.14,1.27-3.17,1.52-1.03,.25-1.99,.27-2.79,.21-.8-.04-1.48-.08-2.04-.11-.53-.03-.95-.06-1.25-.08-.28-.02-.43-.03-.43-.04,0,0,.15-.01,.43,0,.31,0,.72,.01,1.26,.02,.56,.02,1.24,.03,2.04,.06,.81,.05,1.73,.01,2.74-.25,1-.26,2.07-.74,3.06-1.52,.97-.83,2.02-1.73,3.15-2.69,2.27-1.94,4.85-4.14,7.71-6.58,1.5-1.2,3.58-1.81,5.64-1.68,2.05,0,4.18,0,6.38,0,4.41,0,9.12,0,14.08,0,9.92,0,20.83,.01,32.28,.02,22.88,.06,43.59,.11,58.62,.14,7.48,.04,13.55,.08,17.77,.1,2.08,.02,3.7,.04,4.83,.05,.53,.01,.95,.02,1.26,.03,.28,0,.43,.02,.43,.03Z"/><path class="cls-5" d="M453.37,278.55c-.54-1.13-1.68-1.94-3.93-1.69-6.25,.71-71.77,2.17-80.79,0-9.03-2.17-39.11-36.31-51.84-38.63-10.68-1.95-62.61-2.99-79.07-2.52-16.47-.48-68.4,.57-79.07,2.52-12.73,2.33-42.36,39.8-51.39,41.97-9.03,2.17-75-2.63-81.25-3.34-2.26-.26-3.4,.55-3.93,1.69-1.11,2.35,.69,5.06,3.3,5.14,13.95,.39,67.84,1.01,77.92,.83,10.58-.19,118.76-2.17,136.89-2.5,27.33,.17,120.71,.77,130.6,.91,11.66,.16,65.34,1.15,79.3,.76,2.6-.07,4.41-2.78,3.3-5.14Z"/><path class="cls-5" d="M219.36,14.96c.54,0,2.16,9.41,9.75,9.23s26.12,0,26.12,0V12.43l-35.87,2.53Z"/><path class="cls-3" d="M4.41,88.55c-2.31-.18-4-2.27-3.67-4.57,1.02-7.17,4.78-21.11,18.63-23.17,12.26-1.83,21.16-1.27,25.86-.66,2.15,.28,3.22,2.23,3.47,4.39,1.18,9.86,.23,22.09-2.62,23.59-2.97,1.57-31.56,1.23-41.67,.43Z"/><path class="cls-5" d="M100.26,12.43s-.03,.08-.1,.24c-.09,.18-.2,.4-.34,.66-.33,.62-.78,1.46-1.35,2.53-1.21,2.23-2.93,5.38-5.05,9.27-4.32,7.83-10.26,18.59-16.82,30.47-5.38,9.66-10.35,18.57-14.3,25.67l-.02,.04-.03,.03c-4.77,3.66-8.69,6.68-11.47,8.81-1.35,1.02-2.42,1.83-3.18,2.4-.35,.25-.62,.46-.84,.62-.19,.14-.29,.2-.3,.19,0,0,.08-.09,.26-.24,.21-.17,.47-.39,.8-.66,.75-.6,1.79-1.44,3.11-2.49,2.74-2.16,6.63-5.23,11.35-8.95l-.05,.06c3.93-7.11,8.87-16.04,14.21-25.72,6.61-11.85,12.6-22.59,16.96-30.4,2.18-3.85,3.94-6.98,5.19-9.18,.61-1.05,1.09-1.88,1.43-2.48l.38-.64c.09-.14,.14-.21,.15-.21Z"/><path class="cls-5" d="M118.71,6.79c.02,.08-.95,.39-2.48,.97-1.52,.59-3.62,1.47-5.6,2.95-1.98,1.49-3.41,3.26-4.4,4.55-.98,1.31-1.55,2.15-1.62,2.11-.05-.03,.41-.94,1.32-2.32,.92-1.36,2.34-3.21,4.39-4.75,2.05-1.53,4.23-2.38,5.79-2.88,1.58-.49,2.58-.68,2.6-.62Z"/><g class="cls-7"><path d="M62.2,81.24l-.96,.66c-.39-.48,23.1,48.75,34.15,61.74l7.27-6.16c-15.68-15.18-27.39-38.77-40.46-56.24Z"/></g><path class="cls-5" d="M108.79,274.8s.21-.04,.55-.26c.35-.21,.84-.55,1.47-1.05,1.25-.98,3.02-2.51,5.26-4.55,4.46-4.07,10.78-10.11,18.38-17.78,1.9-1.92,3.87-3.94,5.91-6.08,2.06-2.1,4-4.5,6.49-6.53,2.49-2,5.4-3.67,8.6-4.83,3.2-1.17,6.67-1.86,10.25-2.13,1.79-.13,3.61-.13,5.43-.15,1.83-.02,3.68-.04,5.55-.05,3.74-.04,7.55-.07,11.44-.11,7.77-.07,15.81-.15,24.05-.23,32.96-.27,62.79-.52,84.41-.7,10.79-.06,19.52-.12,25.58-.15,3.01,0,5.35-.01,6.95-.01,.78,0,1.38,0,1.81,0,.41,0,.62,.02,.62,.02,0,0-.21,.02-.62,.03-.43,.01-1.03,.02-1.81,.04-1.61,.03-3.95,.06-6.95,.11-6.06,.08-14.79,.18-25.58,.32-21.62,.22-51.45,.52-84.41,.85-8.24,.07-16.28,.15-24.05,.22-3.88,.03-7.7,.07-11.44,.1-1.87,.02-3.72,.03-5.55,.05-1.83,.02-3.63,.02-5.4,.14-3.54,.27-6.97,.94-10.12,2.08-3.16,1.14-6.03,2.77-8.49,4.74-2.45,1.98-4.4,4.37-6.48,6.47-2.04,2.13-4.03,4.14-5.93,6.06-7.63,7.65-13.99,13.65-18.5,17.68-2.26,2.01-4.05,3.52-5.33,4.48-.63,.48-1.14,.82-1.5,1.01-.36,.2-.58,.21-.58,.21Z"/><g class="cls-7"><path class="cls-1" d="M54.92,215.17c-3.09-3.06-6.21-6.14-9.88-8.46-3.67-2.32-8.95-5.04-12.28-2.88-1.69,1.84-3.05,3.97-4.02,6.26-.33,.78-.61,1.7-.24,2.46,.47,.95,1.68,1.19,2.73,1.32,7.65,.96,15.3,1.92,22.96,2.89,.44,.06,1,.06,1.21-.33,.23-.42-.14-.92-.48-1.26Z"/></g><g><g class="cls-7"><path d="M144.38,200.64c58.58,15.6,120.47,11.68,180.69,4.73,9.3-1.07,19.41-2.62,25.75-9.5"/></g><path class="cls-5" d="M362.71,146.63c-22.88-3.23-70.98-4.84-118.73-4.81-47.75-.03-95.86,1.58-118.73,4.81-7.17,1.01-11.84,8.13-9.79,15.08,.02,.08,.05,.16,.07,.25,2.5,8.22,12.37,34.45,28.08,38.38,7.29,1.82,48.37,3.57,92.21,3.93v.06c2.72,0,5.44,0,8.16-.02,2.72,.01,5.44,.02,8.16,.02v-.06c43.83-.35,84.92-2.11,92.21-3.93,15.72-3.93,25.58-30.16,28.08-38.38,.02-.08,.05-.16,.07-.25,2.04-6.95-2.62-14.07-9.79-15.08Z"/><path class="cls-5" d="M368.5,196.86s-.2,.12-.6,.33c-.42,.22-1.02,.52-1.79,.93-.8,.41-1.77,.9-2.93,1.49-.58,.29-1.2,.62-1.88,.93-.68,.3-1.41,.63-2.18,.97-6.11,2.85-15.26,6.38-26.92,9.48-11.68,3.02-25.86,5.6-41.76,6.95-15.89,1.47-33.44,1.79-51.83,1.72-18.4-.09-35.95-.92-51.78-3.02-15.82-2.05-29.87-5.36-41.31-9.2-11.46-3.79-20.3-8.04-26.23-11.25-1.5-.78-2.78-1.55-3.91-2.2-1.13-.64-2.06-1.22-2.81-1.69-.74-.47-1.31-.82-1.71-1.07-.38-.24-.57-.38-.57-.38,0,0,.21,.11,.6,.34,.41,.24,.98,.58,1.74,1.03,.76,.46,1.7,1.02,2.84,1.65,1.13,.63,2.42,1.39,3.93,2.15,5.95,3.15,14.79,7.34,26.25,11.08,11.43,3.78,25.46,7.05,41.26,9.07,15.8,2.07,33.33,2.89,51.72,2.97,18.38,.08,35.92-.23,51.78-1.67,15.87-1.33,30.04-3.86,41.71-6.83,11.66-3.05,20.8-6.52,26.93-9.31,.77-.33,1.5-.65,2.19-.94,.68-.3,1.3-.63,1.88-.91,1.16-.57,2.15-1.05,2.95-1.44,.79-.38,1.39-.67,1.82-.88,.41-.2,.63-.28,.63-.28Z"/><path class="cls-1" d="M371.32,159.41c0,.14-57.12,.26-127.58,.26s-127.59-.12-127.59-.26,57.11-.26,127.59-.26,127.58,.12,127.58,.26Z"/><path class="cls-1" d="M371.32,151.64c0,.14-57.12,.26-127.58,.26s-127.59-.12-127.59-.26,57.11-.26,127.59-.26,127.58,.12,127.58,.26Z"/><path class="cls-1" d="M335.21,143.86c0,.14-40.89,.26-91.32,.26s-91.33-.12-91.33-.26,40.88-.26,91.33-.26,91.32,.12,91.32,.26Z"/><path class="cls-1" d="M371.32,167.29c0,.14-57.12,.26-127.58,.26s-127.59-.12-127.59-.26,57.11-.26,127.59-.26,127.58,.12,127.58,.26Z"/><path class="cls-1" d="M365.65,175.17c0,.14-54.85,.26-122.5,.26s-122.51-.12-122.51-.26,54.84-.26,122.51-.26,122.5,.12,122.5,.26Z"/><path class="cls-1" d="M363.17,183.04c0,.14-53.37,.26-119.19,.26s-119.2-.12-119.2-.26,53.36-.26,119.2-.26,119.19,.12,119.19,.26Z"/><path class="cls-1" d="M357.01,190.92c0,.14-50.62,.26-113.04,.26s-113.05-.12-113.05-.26,50.61-.26,113.05-.26,113.04,.12,113.04,.26Z"/><path class="cls-1" d="M349.35,198.8c0,.14-46.9,.26-104.74,.26s-104.75-.12-104.75-.26,46.89-.26,104.75-.26,104.74,.12,104.74,.26Z"/></g><path class="cls-1" d="M49.07,280.44l.02,.07c.49,1.7-.79,3.59-2.56,3.55l-16.62-.28c-1.3-.03-2.38-1.32-2.54-2.61l-.11-.92c-.2-1.64,1.32-3.14,2.96-3.02l16.49,1.21c1.1,.08,2.07,.93,2.37,2Z"/><path class="cls-1" d="M359.17,270.76c0,.14-53.6,.26-119.7,.26s-119.71-.12-119.71-.26,53.59-.26,119.71-.26,119.7,.12,119.7,.26Z"/><polygon class="cls-1" points="172.53 279.49 165.51 279.49 165.01 270.76 173.06 270.76 172.53 279.49"/><polygon class="cls-1" points="238.2 279.49 231.18 279.49 230.68 270.76 238.73 270.76 238.2 279.49"/><polygon class="cls-1" points="303.87 279.49 296.84 279.49 296.35 270.76 304.39 270.76 303.87 279.49"/><path class="cls-1" d="M355.46,267.61c-12.7-10.94-29.81-27.77-38.61-29.38-10.68-1.95-62.61-2.99-79.07-2.52-16.47-.48-68.4,.57-79.07,2.52-8.19,1.5-23.38,17.55-35.57,29.38h232.34Z"/><path class="cls-5" d="M17.5,261.87s.18-.18,.55-.5c.41-.34,.96-.8,1.66-1.38,1.5-1.21,3.62-2.94,6.27-5.09l.05-.04h.07c8.24,1.02,20.65,2.54,34.53,4.25,6.75,.86,13.16,1.67,18.87,2.39h.05l.04,.03c6.9,3.79,12.75,7.01,16.91,9.3,2.02,1.13,3.64,2.04,4.79,2.68l1.26,.73c.28,.17,.43,.26,.42,.27,0,.01-.16-.06-.46-.21-.33-.17-.76-.39-1.3-.66-1.17-.62-2.8-1.48-4.85-2.56-4.19-2.25-10.07-5.41-17-9.14l.08,.03c-5.71-.71-12.12-1.51-18.87-2.34-13.87-1.78-26.28-3.37-34.51-4.42l.13-.04c-2.69,2.1-4.84,3.78-6.36,4.97-.72,.55-1.29,.98-1.71,1.31-.39,.29-.6,.44-.61,.43Z"/><path class="cls-5" d="M102.97,242.78s3.4-5.74,0-7.19c-3.9-1.66-69.02-9.47-71.67-9.71-5.28-.47-7.2,1.92-8.44,8.12-1.24,6.2-3.97,21.58,1.24,26.05s13.4,6.45,29.52,7.44c16.13,.99,24.61,1.54,32.55-2.93,7.94-4.47,16.79-21.79,16.79-21.79Z"/><path class="cls-5" d="M99.63,191.68c-.17,.07-1.08-1.61-2.66-4.68-1.58-3.07-3.82-7.53-6.73-12.95-1.48-2.7-3.09-5.66-4.96-8.74-1.87-3.07-3.92-6.35-6.4-9.47-1.27-1.55-2.56-3.01-4.17-4.33-1.59-1.33-3.32-2.51-5.2-3.59-1.88-1.08-3.89-2.12-5.91-3.2-2.02-1.07-4.08-2.14-6.17-3.17-4.19-2.07-8.36-3.86-12.52-5.18-2.08-.66-4.15-1.2-6.2-1.63-2.05-.45-4.03-.75-5.92-.69-1.87,.07-3.63,.54-4.98,1.51-1.34,.97-2.28,2.41-2.91,3.99-.65,1.57-1.04,3.24-1.41,4.86-.35,1.63-.71,3.24-1.07,4.74-1.43,5.98-2.59,10.83-3.4,14.22-.8,3.36-1.25,5.21-1.44,5.19-.17-.03-.06-1.95,.44-5.38,.49-3.43,1.39-8.36,2.6-14.42,.29-1.52,.59-3.1,.9-4.75,.33-1.67,.68-3.44,1.37-5.26,.67-1.8,1.78-3.68,3.56-5.04,1.79-1.34,4.04-1.95,6.23-2.06,2.2-.11,4.4,.21,6.52,.65,2.14,.43,4.3,.97,6.46,1.64,4.33,1.34,8.64,3.18,12.9,5.28,2.13,1.05,4.21,2.13,6.24,3.22,2.02,1.09,4.02,2.13,5.99,3.28,1.96,1.15,3.84,2.45,5.51,3.89,1.69,1.41,3.17,3.12,4.45,4.74,2.55,3.32,4.55,6.69,6.37,9.86,1.82,3.18,3.34,6.21,4.73,8.99,2.72,5.57,4.72,10.17,6.02,13.38,1.3,3.21,1.9,5.03,1.74,5.1Z"/><g><path class="cls-8" d="M40.87,158.91c5.07,0,9.48,2.81,11.76,6.96,1.06-1.92,1.66-4.12,1.66-6.46,0-7.41-6.01-13.42-13.42-13.42s-13.42,6.01-13.42,13.42c0,2.34,.6,4.54,1.66,6.46,2.28-4.15,6.69-6.96,11.76-6.96Z"/><g><circle class="cls-1" cx="40.87" cy="158.97" r="5.78"/><path class="cls-5" d="M46.65,158.97c-.05,0-.04-.52-.28-1.39-.24-.86-.83-2.11-2.12-3.06-1.25-.96-3.3-1.5-5.28-.76-1.96,.68-3.66,2.77-3.63,5.21-.02,2.44,1.67,4.53,3.63,5.21,1.98,.74,4.03,.21,5.28-.76,1.29-.96,1.88-2.21,2.12-3.06,.24-.87,.23-1.39,.28-1.39,.02,0,.03,.13,.03,.37,0,.24-.02,.61-.12,1.06-.19,.9-.74,2.25-2.09,3.31-1.3,1.06-3.5,1.69-5.66,.91-1.07-.37-2.08-1.09-2.81-2.09-.75-.99-1.17-2.26-1.18-3.57,.01-1.31,.43-2.58,1.18-3.57,.73-1,1.75-1.72,2.81-2.09,2.16-.78,4.36-.15,5.66,.91,1.35,1.06,1.9,2.41,2.09,3.31,.1,.46,.13,.82,.12,1.06,0,.24-.02,.37-.03,.37Z"/></g><path class="cls-5" d="M54.29,159.41c-.08,0,0-1.2-.52-3.25-.52-2.01-1.86-4.98-4.89-7.27-1.5-1.12-3.39-2.07-5.57-2.45-2.16-.37-4.6-.29-6.93,.59-1.17,.41-2.3,1.02-3.33,1.8-1.05,.76-2,1.7-2.78,2.8-1.62,2.16-2.53,4.92-2.56,7.78,.03,2.85,.94,5.63,2.56,7.78,.78,1.09,1.73,2.04,2.78,2.8,1.04,.78,2.16,1.39,3.33,1.8,2.32,.89,4.76,.96,6.93,.59,2.18-.38,4.07-1.33,5.57-2.45,3.03-2.29,4.38-5.25,4.89-7.27,.52-2.05,.44-3.26,.52-3.25,.02,0,.02,.29,0,.86,0,.28-.01,.63-.08,1.04-.05,.41-.1,.88-.25,1.4-.47,2.06-1.78,5.12-4.87,7.51-1.53,1.17-3.47,2.17-5.71,2.58-2.23,.4-4.76,.34-7.17-.56-1.21-.42-2.39-1.05-3.46-1.85-1.09-.79-2.08-1.76-2.9-2.9-1.69-2.23-2.64-5.12-2.67-8.08,.03-2.97,.98-5.85,2.67-8.08,.82-1.13,1.81-2.11,2.9-2.9,1.08-.8,2.25-1.43,3.46-1.85,2.41-.9,4.94-.96,7.17-.56,2.25,.41,4.19,1.41,5.71,2.58,3.09,2.39,4.4,5.45,4.87,7.51,.15,.52,.2,.99,.25,1.4,.07,.41,.08,.76,.08,1.04,.01,.56,0,.86,0,.86Z"/><path class="cls-1" d="M45.93,149.89c-.2,.33-1.38-.1-3.24-.28-1.84-.2-4.46-.04-6.85,1.23-2.39,1.28-3.98,3.36-4.84,5-.89,1.65-1.19,2.87-1.57,2.84-.32,0-.71-1.36-.14-3.51,.53-2.1,2.23-4.97,5.34-6.63,3.11-1.65,6.44-1.46,8.48-.73,2.1,.73,3.01,1.81,2.83,2.08Z"/><path class="cls-1" d="M49.29,152.01c-.59,.41-1.17,.61-1.31,.47-.14-.14,.04-.72,.43-1.33,.39-.6,1.04-.88,1.39-.54,.35,.34,.09,.99-.5,1.4Z"/></g><path class="cls-5" d="M125.46,210.1c-.18,.7-18.12-3.24-40.08-8.78-21.96-5.55-39.62-10.61-39.45-11.31,.18-.7,18.12,3.23,40.08,8.78,21.96,5.55,39.62,10.61,39.44,11.31Z"/><path class="cls-5" d="M19.67,136.65s0-.11,.01-.31c.02-.2,.07-.51,.15-.9,.18-.78,.5-1.93,1.23-3.28,.73-1.33,1.95-2.85,3.82-3.98,.46-.29,.99-.5,1.51-.76,.56-.17,1.11-.41,1.72-.53,.61-.11,1.22-.29,1.88-.31,.65-.05,1.33-.03,2.01,.02,2.73,.22,5.64,.88,8.72,1.7,3.08,.82,6.33,1.85,9.73,3.02,6.77,2.36,14.13,5.18,21.65,8.67,.94,.45,1.86,.9,2.77,1.39,.92,.48,1.76,1.11,2.55,1.73,1.59,1.27,3.02,2.68,4.25,4.22,2.32,3.18,4.37,6.3,6.37,9.28,3.97,5.96,7.39,11.44,10.16,16.1,2.76,4.66,4.88,8.5,6.31,11.18,.72,1.33,1.26,2.38,1.62,3.09,.17,.34,.3,.6,.41,.81,.09,.18,.13,.28,.12,.28,0,0-.07-.08-.17-.26-.12-.2-.27-.46-.45-.79-.41-.73-.98-1.75-1.71-3.04-1.48-2.64-3.65-6.45-6.45-11.08-2.8-4.63-6.25-10.08-10.24-16.03-2-2.95-4.09-6.12-6.37-9.23-1.21-1.5-2.62-2.89-4.18-4.13-.79-.61-1.59-1.21-2.48-1.68-.89-.48-1.81-.93-2.74-1.37-7.48-3.47-14.84-6.31-21.58-8.69-3.38-1.17-6.62-2.21-9.68-3.05-3.06-.83-5.96-1.51-8.64-1.75-.67-.06-1.32-.08-1.95-.04-.63,.01-1.24,.18-1.83,.28-.59,.11-1.13,.34-1.68,.5-.51,.25-1.03,.44-1.48,.72-1.84,1.08-3.05,2.54-3.79,3.83-.74,1.31-1.1,2.44-1.31,3.2-.1,.38-.16,.68-.2,.88-.04,.2-.06,.3-.07,.3Z"/><path class="cls-5" d="M22.97,60.87s-.19,.41-.62,1.1c-.43,.69-1.04,1.69-1.78,2.94-1.47,2.49-3.37,6.02-5.13,10.07-1.75,4.06-3.02,7.86-3.82,10.64-.41,1.39-.72,2.52-.92,3.31-.21,.78-.34,1.21-.38,1.21-.04,0,.03-.45,.18-1.25,.14-.8,.4-1.95,.77-3.36,.72-2.82,1.94-6.66,3.7-10.75,1.77-4.08,3.73-7.6,5.29-10.06,.78-1.23,1.44-2.2,1.92-2.86,.48-.66,.76-1.01,.79-.99Z"/><g class="cls-7"><path class="cls-1" d="M15.51,142.32c-.99,.33-6.42,3.71-8.72,5-2.3,1.29-4.31,3.32-4.98,5.87-.66,2.54,.07,5.22,.79,7.74,2.37,8.25,5.12,23.08,7.49,31.32,1.85-14.96,3.87-40.44,5.42-49.94"/></g><g><path class="cls-1" d="M89.98,261c-.02,.14-15.48-1.88-34.54-4.52-19.06-2.64-34.49-4.89-34.47-5.03,.02-.14,15.48,1.88,34.54,4.52,19.05,2.64,34.49,4.89,34.47,5.03Z"/><path class="cls-1" d="M85.06,264.78s-.23,0-.65-.04c-.48-.05-1.09-.12-1.85-.2-1.67-.2-3.98-.48-6.81-.82-5.81-.69-13.72-1.64-22.46-2.68-8.78-1.04-16.71-2.04-22.45-2.83-2.87-.4-5.19-.73-6.79-.99-.76-.12-1.37-.22-1.84-.3-.42-.07-.64-.12-.64-.14,0-.02,.23,0,.65,.04,.48,.05,1.09,.12,1.85,.2,1.67,.2,3.98,.48,6.81,.82,5.81,.69,13.72,1.64,22.46,2.68,8.77,1.04,16.71,2.04,22.45,2.83,2.87,.4,5.19,.73,6.79,.99,.76,.12,1.37,.22,1.84,.3,.42,.07,.64,.12,.64,.14Z"/><path class="cls-1" d="M74.24,267.61c.05,.13-2.53-.08-6.61-.49-4.09-.41-9.74-1.04-15.96-1.77-6.23-.73-11.87-1.43-15.94-1.96-1.97-.27-3.6-.49-4.82-.66-1.14-.17-1.76-.28-1.76-.31,0-.04,.64,0,1.78,.11,1.23,.12,2.86,.29,4.84,.49,4.16,.47,9.77,1.11,15.96,1.81,6.19,.74,11.78,1.42,15.95,1.92,1.98,.25,3.6,.46,4.83,.61,1.13,.15,1.79,.24,1.74,.24Z"/><path class="cls-1" d="M93.59,256.69c-.02,.14-16.29-1.88-36.34-4.52-20.06-2.64-36.29-4.89-36.28-5.03,.02-.14,16.29,1.88,36.34,4.52,20.05,2.64,36.29,4.89,36.27,5.03Z"/><path class="cls-1" d="M96.4,252.7c-.02,.14-16.86-1.96-37.62-4.68-20.76-2.73-37.58-5.06-37.56-5.2,.02-.14,16.86,1.95,37.63,4.69,20.76,2.73,37.57,5.06,37.55,5.2Z"/><path class="cls-1" d="M99.58,247.97c-.02,.14-17.34-2.02-38.68-4.82-21.35-2.81-38.63-5.2-38.62-5.34,.02-.14,17.34,2.02,38.68,4.82,21.34,2.81,38.63,5.2,38.61,5.34Z"/><path class="cls-1" d="M102.01,243.15c-.02,.14-17.65-2.06-39.37-4.91-21.73-2.86-39.32-5.29-39.3-5.43,.02-.14,17.64,2.06,39.37,4.92,21.72,2.86,39.32,5.29,39.3,5.43Z"/><path class="cls-1" d="M104.47,238.34c-.02,.14-17.79-2.08-39.68-4.96-21.9-2.88-39.64-5.33-39.62-5.47,.02-.14,17.78,2.08,39.69,4.96,21.9,2.88,39.64,5.33,39.62,5.47Z"/></g><path class="cls-1" d="M47.11,227.34c.14,.03-1.58,8.69-3.85,19.34-2.27,10.65-4.22,19.26-4.36,19.23-.14-.03,1.58-8.69,3.85-19.34,2.27-10.65,4.22-19.26,4.36-19.23Z"/><path class="cls-1" d="M40.57,226.25c.14,.03-1.58,8.69-3.85,19.34-2.27,10.65-4.22,19.26-4.36,19.23-.14-.03,1.58-8.69,3.85-19.34,2.27-10.65,4.22-19.26,4.36-19.23Z"/><path class="cls-1" d="M34.02,225.15c.14,.03-1.48,8.22-3.63,18.3-2.15,10.08-4,18.22-4.14,18.19-.14-.03,1.48-8.22,3.63-18.3,2.15-10.07,4-18.22,4.14-18.19Z"/><path class="cls-1" d="M26.92,226.64s-.01,.4-.13,1.1c-.15,.81-.32,1.8-.53,2.97-.47,2.63-1.08,6.03-1.76,9.79-.67,3.83-1.36,7.29-1.91,9.78-.28,1.24-.51,2.25-.69,2.94-.18,.69-.29,1.07-.33,1.06s.01-.4,.13-1.1c.15-.81,.32-1.8,.53-2.97,.47-2.63,1.08-6.03,1.76-9.79,.67-3.83,1.35-7.29,1.91-9.77,.28-1.24,.51-2.25,.69-2.94,.18-.69,.29-1.07,.33-1.06Z"/><path class="cls-1" d="M54.68,228.69c.14,.03-1.52,8.39-3.71,18.67-2.19,10.28-4.08,18.59-4.22,18.56-.14-.03,1.52-8.39,3.71-18.67,2.19-10.28,4.08-18.59,4.22-18.56Z"/><path class="cls-1" d="M62.2,230.22c.14,.03-1.52,8.41-3.72,18.71-2.19,10.31-4.09,18.64-4.23,18.61-.14-.03,1.52-8.41,3.72-18.72,2.19-10.3,4.09-18.64,4.23-18.61Z"/><path class="cls-1" d="M69.97,230.63c.14,.03-1.51,8.34-3.68,18.55-2.18,10.22-4.05,18.47-4.19,18.44-.14-.03,1.51-8.33,3.68-18.55,2.17-10.21,4.05-18.47,4.19-18.44Z"/><path class="cls-1" d="M77.61,231.63c.14,.03-1.5,8.29-3.66,18.45-2.16,10.16-4.03,18.37-4.17,18.34-.14-.03,1.5-8.29,3.66-18.45,2.16-10.16,4.03-18.37,4.17-18.34Z"/><path class="cls-1" d="M85.14,233.12c.14,.03-1.39,7.76-3.41,17.26-2.02,9.5-3.78,17.18-3.92,17.15-.14-.03,1.39-7.76,3.41-17.26,2.02-9.5,3.78-17.18,3.92-17.15Z"/><path class="cls-1" d="M92.86,233.76c.14,.03-1.28,7.25-3.17,16.13-1.89,8.88-3.54,16.06-3.68,16.03-.14-.03,1.28-7.25,3.17-16.14,1.89-8.88,3.54-16.06,3.68-16.03Z"/><path class="cls-1" d="M100.45,234.99c.14,.03-.65,4.3-1.77,9.55-1.12,5.24-2.14,9.47-2.28,9.44-.14-.03,.65-4.3,1.77-9.55,1.12-5.24,2.14-9.47,2.28-9.44Z"/><path class="cls-5" d="M349.71,263.66c0,.14-49.69,.26-110.98,.26s-110.99-.12-110.99-.26,49.68-.26,110.99-.26,110.98,.12,110.98,.26Z"/><path class="cls-5" d="M345.35,258.63c0,.14-47.56,.26-106.2,.26s-106.21-.12-106.21-.26,47.55-.26,106.21-.26,106.2,.12,106.2,.26Z"/><path class="cls-5" d="M338.74,253.49c0,.14-44.98,.26-100.45,.26s-100.46-.12-100.46-.26,44.97-.26,100.46-.26,100.45,.12,100.45,.26Z"/><path class="cls-5" d="M334.34,248.36c0,.14-42.84,.26-95.68,.26s-95.69-.12-95.69-.26,42.83-.26,95.69-.26,95.68,.12,95.68,.26Z"/><path class="cls-5" d="M327,243.46c0,.14-39.72,.26-88.71,.26s-88.72-.12-88.72-.26,39.71-.26,88.72-.26,88.71,.12,88.71,.26Z"/><path class="cls-5" d="M318.68,238.57c0,.14-35.89,.26-80.14,.26s-80.15-.12-80.15-.26,35.88-.26,80.15-.26,80.14,.12,80.14,.26Z"/><g class="cls-7"><path d="M255.23,82.71h0l-185.88-.29s7.7,9.2,21.86,9.12c12.92-.07,138.65-.01,160.72,0h0s.54,0,1.54,0c1.15,0,1.76,0,1.76,0h0c20.37-.01,128.57-.07,139.75,0,12.35,.08,18.41-8.83,18.41-8.83H255.23Z"/></g><path class="cls-5" d="M414.04,78.75l-35.17-60.97c-.55-.95-1.55-1.56-2.65-1.61l-121-5.19h0l-11.61-.5c-1.39-.06-2.78-.06-4.17,0l-11.61,.5h0l-121,5.19c-1.1,.05-2.1,.65-2.65,1.61l-35.17,60.97c-1.13,1.96,.06,4.45,2.31,4.79,.5,.07,1.03,.15,1.6,.21,3.07,.34,125.82,.12,168.6,.03,42.79,.09,165.54,.31,168.6-.03,.56-.06,1.1-.13,1.6-.21,2.24-.34,3.44-2.82,2.31-4.79Zm-16.19-2.56l-156.32,1.06-156.32-1.06c-2.47-.02-4-2.69-2.76-4.82,6.74-11.66,23.67-40.84,26.38-44.21,4.92-6.11,81.02-6.92,121.5-6.91,.24,.06,.49,.09,.75,.09,2.37-.02,5.95-.04,10.45-.06,4.5,.02,8.08,.04,10.45,.06,.26,0,.51-.03,.75-.09,40.48,0,116.59,.8,121.5,6.91,2.71,3.37,19.64,32.55,26.38,44.21,1.23,2.13-.3,4.8-2.76,4.82Z"/><path class="cls-5" d="M281.23,72.81c0-3.48,1.34-13.31,4.56-15.93,2.49-2.02,8.38-2.63,11.29-2.8,.09,0,.18,0,.28,0,1.54,.02,11.84,.29,14.92,2.8,3.22,2.62,4.57,12.45,4.56,15.93v.1c0,2.16-1.75,3.91-3.92,3.91h-27.78c-2.16,0-3.92-1.75-3.92-3.91v-.1Z"/><g class="cls-7"><path d="M281.23,72.81c0-3.48,1.34-13.31,4.56-15.93,2.49-2.02,8.38-2.63,11.29-2.8,.09,0,.18,0,.28,0,1.54,.02,11.84,.29,14.92,2.8,3.22,2.62,4.57,12.45,4.56,15.93v.1c0,2.16-1.75,3.91-3.92,3.91h-27.78c-2.16,0-3.92-1.75-3.92-3.91v-.1Z"/></g><path class="cls-5" d="M295.26,70.25c0-5.69,2.19-21.78,7.47-26.07,4.08-3.31,13.72-4.3,18.48-4.58,.15,0,.3-.01,.45,0,2.52,.03,19.38,.48,24.43,4.59,5.28,4.29,7.47,20.39,7.47,26.07v.17c0,3.54-2.87,6.41-6.41,6.41h-45.48c-3.54,0-6.41-2.87-6.41-6.41v-.17Z"/><g class="cls-7"><path d="M350.97,236.63h0s-.75,4.55,9.9,19.6c3.25,4.6,13.58,13.87,17.44,17.28,.94,.83,2.16,1.26,3.42,1.21,10.72-.47,62.41-2.86,70.99-5.38,3.88-1.14,6.8-2.47,8.98-3.75,3.78-2.23,5.99-6.38,5.83-10.76-.27-7.43-.73-20.5-.73-23.92,0-4.86-3.38-8.95-9.68-8.18-4.15,.5-106.15,13.91-106.15,13.91h0Zm33.33-1.04l66.99-6.08,1.94,27.01-49.31,7.99-19.61-28.91Z"/></g><g class="cls-7"><path d="M465.26,167.29s5.05,15.34-27.05,22.48c-32.5,7.23-80.59,20.33-80.59,20.33l25.83-18.41s74.3-12.39,76.15-23.76c2.12-13,0-27.61,0-27.61l5.66,26.97Z"/></g><path class="cls-5" d="M339.87,236.17s.11-.05,.34-.12c.25-.07,.58-.17,1-.29,.92-.25,2.22-.62,3.87-1.08,3.38-.89,8.27-2.16,14.36-3.56,12.17-2.83,29.1-6.22,47.9-9.28,9.41-1.52,18.38-2.92,26.58-3.96,4.09-.54,7.98-1.06,11.62-1.55,3.63-.49,7.04-.97,10.19-.86,3.13,.09,6.03,.86,8.04,2.38,2.04,1.46,3.43,3.16,4.34,4.66,.92,1.5,1.36,2.81,1.56,3.71,.21,.9,.21,1.39,.21,1.39-.1,.04-.08-2.03-1.94-4.99-.92-1.46-2.32-3.12-4.34-4.53-1.99-1.47-4.8-2.19-7.89-2.25-3.1-.08-6.5,.41-10.13,.92-3.64,.5-7.52,1.03-11.61,1.59-8.18,1.06-17.15,2.47-26.56,4-18.8,3.06-35.73,6.39-47.91,9.13-6.09,1.35-11,2.57-14.39,3.39-1.67,.42-2.98,.75-3.9,.98-.43,.1-.76,.18-1.02,.24-.23,.05-.35,.07-.35,.07Z"/><path class="cls-5" d="M469.34,196.51s-.04-.2-.05-.57c-.01-.43-.03-.97-.05-1.64-.04-1.49-.09-3.53-.16-6.02-.15-5.08-.49-12.09-1.17-19.82-.69-7.73-1.6-14.69-2.34-19.72-.37-2.46-.68-4.47-.91-5.95-.1-.66-.18-1.19-.24-1.62-.05-.37-.07-.57-.05-.57,.02,0,.07,.19,.15,.55,.09,.42,.2,.95,.34,1.6,.28,1.39,.65,3.42,1.07,5.93,.84,5.02,1.8,11.99,2.49,19.73,.68,7.74,.96,14.77,1.02,19.86,.03,2.54,.02,4.6,0,6.03-.02,.66-.04,1.21-.05,1.64-.02,.37-.03,.57-.05,.57Z"/><path class="cls-5" d="M447.01,127.41c-.1,0-.12-1.74-.64-4.51-.51-2.76-1.5-6.52-2.79-10.62-1.29-4.1-2.62-7.76-3.58-10.4-.46-1.24-.84-2.29-1.15-3.13-.27-.74-.4-1.16-.37-1.17,.03-.01,.23,.38,.56,1.09,.32,.72,.78,1.77,1.3,3.08,1.06,2.62,2.44,6.27,3.73,10.38,1.3,4.11,2.24,7.91,2.66,10.71,.13,.69,.16,1.34,.23,1.9,.07,.56,.09,1.04,.09,1.44,0,.79,0,1.23-.04,1.23Z"/><path class="cls-2" d="M440.95,134.41s16.73-6.1,18.87,6.87c2.14,12.97,1.92,25.88-.89,30.41-2.81,4.54-28.64,10.72-28.64,10.72l-44.67,9.82s-3.21,.67-1.28-2.97c2.17-4.07,14-30.17,20.84-36.51,12.62-11.71,35.77-18.35,35.77-18.35Z"/><g class="cls-7"><path d="M424.47,183.7s-.07-30.57,2.17-33.96c2.24-3.39,28.57-15.58,28.57-15.58,0,0-2.56-2.18-7.82-1.18-5.26,1-14.01,3.38-21.27,7.11-7.27,3.73-18.9,9.07-23.24,15.25-1.89,2.68-5.84,9.1-9.61,16.06-4.9,9.05-9.54,18.73-9.54,19.26,0,1.11-.26,2.12,4.08,1.2,10.06-2.15,36.66-8.14,36.66-8.14Z"/></g><g><circle class="cls-2" cx="409.91" cy="170.1" r="10.84"/><path class="cls-5" d="M399.08,170.1s-.13-.97,.24-2.67c.37-1.67,1.43-4.15,3.93-6.09,1.24-.95,2.81-1.76,4.63-2.1,1.81-.32,3.86-.28,5.81,.45,.98,.34,1.94,.85,2.81,1.5,.88,.64,1.69,1.43,2.35,2.35,1.37,1.81,2.14,4.15,2.16,6.55-.02,2.41-.8,4.74-2.16,6.56-.66,.92-1.47,1.71-2.35,2.35-.87,.65-1.82,1.16-2.81,1.5-1.96,.73-4,.78-5.81,.45-1.82-.34-3.39-1.15-4.63-2.1-2.5-1.94-3.56-4.42-3.93-6.09-.37-1.7-.24-2.67-.24-2.67,.07,0,0,.97,.44,2.62,.42,1.62,1.51,4.01,3.95,5.85,1.21,.9,2.73,1.66,4.48,1.97,1.74,.29,3.7,.23,5.57-.48,.94-.33,1.85-.82,2.68-1.45,.84-.61,1.61-1.37,2.23-2.25,1.3-1.73,2.03-3.96,2.05-6.25-.02-2.29-.75-4.52-2.05-6.25-.63-.88-1.39-1.64-2.23-2.25-.83-.62-1.74-1.12-2.68-1.45-1.87-.71-3.83-.77-5.57-.48-1.75,.3-3.27,1.07-4.48,1.97-2.44,1.84-3.53,4.22-3.95,5.85-.43,1.65-.37,2.63-.44,2.62Z"/></g><path class="cls-8" d="M409.91,169.63c-3.98,0-7.44,2.21-9.23,5.46-.83-1.51-1.3-3.23-1.3-5.07,0-5.82,4.72-10.54,10.54-10.54s10.54,4.72,10.54,10.54c0,1.84-.47,3.57-1.3,5.07-1.79-3.26-5.25-5.46-9.23-5.46Z"/><g><path class="cls-1" d="M405.24,169.74c0,2.58,2.09,4.67,4.67,4.67s4.67-2.09,4.67-4.67-2.09-4.67-4.67-4.67-4.67,2.09-4.67,4.67Z"/><path class="cls-5" d="M405.24,169.74s-.03-.1-.04-.3c-.01-.2,0-.49,.09-.86,.14-.73,.59-1.83,1.69-2.69,1.05-.87,2.85-1.39,4.61-.75,1.75,.58,3.28,2.43,3.26,4.61,.02,2.18-1.51,4.04-3.26,4.61-1.76,.63-3.56,.11-4.61-.75-1.09-.87-1.54-1.96-1.68-2.69-.08-.37-.1-.67-.09-.86,0-.2,.02-.3,.04-.3,.05,0,.04,.42,.24,1.12,.2,.69,.67,1.69,1.71,2.45,1,.77,2.64,1.19,4.22,.6,1.57-.55,2.92-2.21,2.9-4.16,.02-1.95-1.33-3.61-2.9-4.16-1.58-.59-3.22-.17-4.22,.59-1.04,.76-1.51,1.76-1.71,2.45-.2,.7-.19,1.12-.24,1.12Z"/></g><path class="cls-1" d="M405.82,162.41c-.18-.28,.53-1.21,2.25-1.85,1.67-.64,4.42-.83,7.01,.54,2.58,1.38,3.96,3.77,4.36,5.51,.42,1.78,.05,2.9-.28,2.9-.38,.02-.69-.95-1.44-2.23-.73-1.28-2-2.88-3.87-3.88-1.87-.99-3.91-1.15-5.38-1.04-1.48,.09-2.46,.38-2.65,.05Z"/><path class="cls-1" d="M403.11,164.12c-.59-.41-.88-1.02-.58-1.31,.3-.29,.9,.01,1.29,.62,.39,.6,.62,1.15,.52,1.25-.1,.09-.64-.15-1.24-.56Z"/><path class="cls-5" d="M239.31,136.01s.14-.02,.43-.03c.31,0,.72-.02,1.26-.03,1.13-.01,2.75-.03,4.83-.05,4.22-.02,10.29-.06,17.77-.1,15.03-.04,35.74-.09,58.62-.14,11.45,0,22.35-.01,32.28-.02,4.96,0,9.67,0,14.08,0,2.2,0,4.33,0,6.38,0,2.06-.13,4.14,.48,5.64,1.68,2.85,2.43,5.44,4.64,7.71,6.58,1.13,.97,2.18,1.86,3.15,2.69,.99,.78,2.06,1.26,3.06,1.52,1.01,.26,1.93,.3,2.74,.25,.8-.02,1.48-.04,2.04-.06,.53-.01,.95-.02,1.26-.02,.28,0,.43,0,.43,0,0,0-.14,.02-.43,.04-.31,.02-.72,.04-1.25,.08-.56,.03-1.24,.06-2.04,.11-.8,.07-1.76,.05-2.79-.21-1.03-.25-2.14-.73-3.17-1.52-.98-.82-2.05-1.71-3.19-2.67-2.28-1.92-4.88-4.1-7.74-6.51-1.45-1.14-3.38-1.7-5.41-1.57-2.05,0-4.18,.01-6.38,.02-4.41,.01-9.12,.03-14.08,.04-9.92,.02-20.83,.04-32.28,.06-22.88,0-43.59,0-58.62,0-7.48-.03-13.55-.05-17.77-.06-2.08-.02-3.7-.03-4.83-.04-.53-.01-.95-.02-1.26-.02-.28,0-.43-.02-.43-.03Z"/><path class="cls-5" d="M29.7,278.55c.54-1.13,1.68-1.94,3.93-1.69,6.25,.71,71.77,2.17,80.79,0,9.03-2.17,39.11-36.31,51.84-38.63,10.68-1.95,62.61-2.99,79.07-2.52,16.47-.48,68.4,.57,79.07,2.52,12.73,2.33,42.36,39.8,51.39,41.97s75-2.63,81.25-3.34c2.26-.26,3.4,.55,3.93,1.69,1.11,2.35-.69,5.06-3.3,5.14-13.95,.39-67.84,1.01-77.92,.83-10.58-.19-118.76-2.17-136.89-2.5-27.33,.17-120.71,.77-130.6,.91-11.66,.16-65.34,1.15-79.3,.76-2.6-.07-4.41-2.78-3.3-5.14Z"/><path class="cls-5" d="M263.71,14.96c-.54,0-.1,9.4-7.69,9.22s-21.89,0-21.89,0l-6.29-11.75,35.87,2.53Z"/><path class="cls-5" d="M260.35,27.45c1.06,0,2.05,.5,2.67,1.36,1.81,2.47,5.43,7.58,5.53,9.18,.13,2.13-1.07,3.87-3.27,4.14-2.09,.25-42.13,.03-46.28,0-.26,0-.51-.03-.76-.1-1.09-.27-3.93-1.17-3.72-3.11,.2-1.77,3.28-7.14,4.9-9.86,.6-1,1.67-1.61,2.84-1.61h38.09Z"/><path class="cls-5" d="M382.82,12.43s.06,.07,.15,.21c.1,.17,.23,.38,.38,.64,.35,.6,.83,1.43,1.43,2.48,1.25,2.21,3.02,5.34,5.19,9.18,4.36,7.81,10.34,18.54,16.96,30.4,5.35,9.68,10.28,18.6,14.21,25.72l-.05-.06c4.72,3.72,8.61,6.79,11.35,8.95,1.32,1.06,2.36,1.89,3.11,2.49,.33,.27,.6,.49,.8,.66,.18,.15,.27,.24,.26,.24,0,0-.11-.06-.3-.19l-.84-.62c-.76-.58-1.83-1.38-3.18-2.4-2.77-2.13-6.69-5.14-11.47-8.81l-.03-.03-.02-.04c-3.96-7.1-8.92-16.01-14.3-25.67-6.56-11.88-12.5-22.64-16.82-30.47-2.12-3.88-3.83-7.04-5.05-9.27-.57-1.07-1.02-1.92-1.35-2.53-.14-.27-.25-.49-.34-.66-.07-.15-.11-.23-.1-.24Z"/><path class="cls-5" d="M364.36,6.79c.02-.06,1.02,.13,2.6,.62,1.57,.51,3.74,1.35,5.79,2.88,2.04,1.54,3.46,3.39,4.39,4.75,.92,1.38,1.38,2.29,1.32,2.32-.07,.04-.64-.8-1.62-2.11-.99-1.29-2.42-3.06-4.4-4.55-1.99-1.48-4.08-2.36-5.6-2.95-1.53-.58-2.5-.89-2.48-.97Z"/><g class="cls-7"><path d="M420.88,81.24l.96,.66c.39-.48-23.1,48.75-34.15,61.74l-7.27-6.16c15.68-15.18,27.39-38.77,40.46-56.24Z"/></g><path class="cls-5" d="M374.28,274.8s-.22,0-.58-.21c-.36-.2-.87-.53-1.5-1.01-1.28-.95-3.07-2.47-5.33-4.48-4.51-4.03-10.87-10.03-18.5-17.68-1.91-1.91-3.89-3.93-5.93-6.06-2.07-2.1-4.03-4.49-6.48-6.47-2.46-1.97-5.33-3.6-8.49-4.74-3.16-1.15-6.58-1.82-10.12-2.08-1.77-.13-3.57-.13-5.4-.14-1.83-.02-3.68-.03-5.55-.05-3.74-.03-7.55-.07-11.44-.1-7.77-.07-15.81-.14-24.05-.22-32.96-.33-62.79-.63-84.41-.85-10.79-.13-19.52-.24-25.58-.32-3-.05-5.34-.09-6.95-.11-.78-.02-1.38-.03-1.81-.04-.41-.01-.62-.03-.62-.03,0,0,.21-.02,.62-.02,.43,0,1.03,0,1.81,0,1.61,0,3.95,0,6.95,.01,6.06,.04,14.79,.09,25.58,.15,21.62,.18,51.45,.42,84.41,.7,8.24,.08,16.28,.15,24.05,.23,3.88,.04,7.7,.07,11.44,.11,1.87,.02,3.72,.04,5.55,.05,1.82,.02,3.64,.02,5.43,.15,3.58,.28,7.04,.96,10.25,2.13,3.2,1.16,6.11,2.83,8.6,4.83,2.49,2.03,4.44,4.43,6.49,6.53,2.03,2.13,4.01,4.16,5.91,6.08,7.6,7.67,13.91,13.72,18.38,17.78,2.23,2.03,4,3.57,5.26,4.55,.62,.49,1.12,.84,1.47,1.05,.35,.22,.56,.24,.55,.26Z"/><g class="cls-7"><path class="cls-1" d="M428.15,215.17c3.09-3.06,6.21-6.14,9.88-8.46,3.67-2.32,8.95-5.04,12.28-2.88,1.69,1.84,3.05,3.97,4.02,6.26,.33,.78,.61,1.7,.24,2.46-.47,.95-1.68,1.19-2.73,1.32-7.65,.96-15.3,1.92-22.96,2.89-.44,.06-1,.06-1.21-.33-.23-.42,.14-.92,.48-1.26Z"/></g><path class="cls-1" d="M434.01,280.44l-.02,.07c-.49,1.7,.79,3.59,2.56,3.55l16.62-.28c1.3-.03,2.38-1.32,2.54-2.61l.11-.92c.2-1.64-1.32-3.14-2.96-3.02l-16.49,1.21c-1.1,.08-2.07,.93-2.37,2Z"/><path class="cls-1" d="M123.9,270.76c0-.14,53.6-.26,119.7-.26s119.71,.12,119.71,.26-53.59,.26-119.71,.26-119.7-.12-119.7-.26Z"/><polygon class="cls-1" points="310.54 279.49 317.56 279.49 318.06 270.76 310.01 270.76 310.54 279.49"/><polygon class="cls-1" points="244.87 279.49 251.89 279.49 252.39 270.76 244.34 270.76 244.87 279.49"/><polygon class="cls-1" points="179.21 279.49 186.23 279.49 186.72 270.76 178.68 270.76 179.21 279.49"/><path class="cls-1" d="M127.61,267.61c12.7-10.94,29.81-27.77,38.61-29.38,10.68-1.95,62.61-2.99,79.07-2.52,16.47-.48,68.4,.57,79.07,2.52,8.19,1.5,23.38,17.55,35.57,29.38H127.61Z"/><path class="cls-5" d="M465.57,261.87s-.22-.13-.61-.43l-1.71-1.31c-1.52-1.19-3.67-2.87-6.36-4.97l.13,.04c-8.23,1.05-20.64,2.65-34.51,4.42-6.75,.84-13.16,1.63-18.87,2.34l.08-.03c-6.94,3.73-12.81,6.89-17,9.14-2.05,1.08-3.69,1.95-4.85,2.56-.54,.28-.97,.49-1.3,.66-.3,.15-.45,.22-.46,.21,0-.01,.14-.1,.42-.27,.32-.18,.74-.43,1.26-.73,1.15-.64,2.77-1.55,4.79-2.68,4.17-2.29,10.01-5.51,16.91-9.3l.04-.02h.05c5.71-.73,12.11-1.54,18.87-2.4,13.88-1.7,26.29-3.23,34.53-4.24h.07l.05,.04c2.65,2.15,4.77,3.88,6.27,5.09,.7,.58,1.25,1.04,1.66,1.38,.37,.32,.56,.49,.55,.5Z"/><path class="cls-5" d="M380.11,242.78s-3.4-5.74,0-7.19c3.9-1.66,69.02-9.47,71.67-9.71,5.28-.47,7.2,1.92,8.44,8.12,1.24,6.2,3.97,21.58-1.24,26.05s-13.4,6.45-29.52,7.44c-16.13,.99-24.61,1.54-32.55-2.93-7.94-4.47-16.79-21.79-16.79-21.79Z"/><path class="cls-5" d="M383.44,191.68c-.16-.07,.44-1.89,1.74-5.1,1.3-3.21,3.29-7.81,6.02-13.38,1.39-2.77,2.91-5.81,4.73-8.99,1.82-3.17,3.83-6.54,6.37-9.86,1.28-1.63,2.77-3.33,4.45-4.74,1.68-1.44,3.55-2.74,5.51-3.89,1.96-1.15,3.96-2.19,5.99-3.28,2.03-1.08,4.1-2.17,6.24-3.22,4.26-2.1,8.57-3.94,12.9-5.28,2.16-.67,4.33-1.21,6.46-1.64,2.12-.44,4.32-.75,6.52-.65,2.19,.11,4.44,.72,6.23,2.06,1.78,1.35,2.89,3.24,3.56,5.04,.69,1.81,1.05,3.58,1.37,5.26,.31,1.65,.61,3.24,.9,4.75,1.2,6.06,2.1,10.99,2.6,14.42,.5,3.43,.61,5.35,.44,5.38-.18,.03-.63-1.83-1.44-5.19-.81-3.39-1.97-8.24-3.4-14.22-.36-1.5-.71-3.11-1.07-4.74-.37-1.62-.76-3.29-1.41-4.86-.63-1.57-1.57-3.01-2.91-3.99-1.35-.97-3.11-1.44-4.98-1.51-1.89-.06-3.87,.23-5.92,.69-2.05,.43-4.12,.98-6.2,1.63-4.16,1.32-8.33,3.12-12.52,5.18-2.1,1.03-4.15,2.1-6.17,3.17-2.02,1.08-4.04,2.11-5.91,3.2-1.88,1.08-3.61,2.26-5.2,3.59-1.61,1.32-2.9,2.77-4.17,4.33-2.48,3.12-4.53,6.39-6.4,9.47-1.87,3.08-3.48,6.04-4.96,8.74-2.91,5.42-5.15,9.88-6.73,12.95-1.57,3.07-2.49,4.76-2.66,4.68Z"/><path class="cls-8" d="M442.2,158.91c-5.07,0-9.48,2.81-11.76,6.96-1.06-1.92-1.66-4.12-1.66-6.46,0-7.41,6.01-13.42,13.42-13.42s13.42,6.01,13.42,13.42c0,2.34-.6,4.54-1.66,6.46-2.28-4.15-6.69-6.96-11.76-6.96Z"/><g><path class="cls-1" d="M436.42,158.97c0,3.19,2.59,5.78,5.78,5.78s5.78-2.59,5.78-5.78-2.59-5.78-5.78-5.78-5.78,2.59-5.78,5.78Z"/><path class="cls-5" d="M436.42,158.97s-.03-.13-.03-.37c0-.24,.02-.61,.12-1.06,.19-.9,.74-2.25,2.09-3.31,1.3-1.06,3.5-1.69,5.66-.91,1.06,.37,2.08,1.09,2.81,2.09,.75,.99,1.17,2.26,1.18,3.57-.01,1.31-.43,2.58-1.18,3.57-.73,1-1.75,1.72-2.81,2.09-2.16,.78-4.36,.15-5.66-.91-1.35-1.06-1.9-2.41-2.09-3.31-.1-.46-.13-.82-.12-1.06,0-.24,.02-.37,.03-.37,.05,0,.04,.52,.28,1.39,.24,.86,.83,2.1,2.12,3.06,1.25,.96,3.3,1.5,5.28,.76,1.96-.68,3.66-2.77,3.63-5.21,.02-2.44-1.67-4.53-3.63-5.21-1.98-.74-4.03-.21-5.28,.76-1.29,.96-1.88,2.21-2.12,3.06-.24,.87-.23,1.39-.28,1.39Z"/></g><path class="cls-5" d="M428.79,159.41s-.02-.29,0-.86c0-.28,.01-.63,.08-1.04,.05-.41,.1-.88,.25-1.4,.46-2.06,1.78-5.12,4.87-7.51,1.53-1.17,3.47-2.17,5.71-2.58,2.23-.4,4.76-.34,7.17,.56,1.21,.42,2.39,1.05,3.46,1.85,1.09,.79,2.08,1.76,2.9,2.9,1.69,2.23,2.64,5.12,2.67,8.08-.02,2.97-.98,5.85-2.67,8.08-.82,1.13-1.81,2.11-2.9,2.9-1.08,.8-2.25,1.43-3.46,1.85-2.41,.91-4.94,.96-7.17,.56-2.25-.41-4.19-1.41-5.71-2.58-3.09-2.39-4.4-5.45-4.87-7.51-.15-.52-.2-.99-.25-1.4-.07-.41-.08-.76-.08-1.04-.01-.56,0-.86,0-.86,.08,0,0,1.2,.52,3.25,.52,2.01,1.86,4.98,4.89,7.27,1.5,1.12,3.39,2.07,5.57,2.45,2.16,.37,4.6,.3,6.93-.59,1.17-.41,2.3-1.02,3.33-1.8,1.05-.76,2-1.71,2.78-2.8,1.62-2.16,2.53-4.93,2.56-7.78-.03-2.85-.94-5.62-2.56-7.78-.78-1.09-1.73-2.04-2.78-2.8-1.04-.78-2.16-1.39-3.33-1.8-2.32-.89-4.76-.96-6.93-.59-2.18,.38-4.07,1.33-5.57,2.45-3.03,2.29-4.38,5.25-4.89,7.27-.52,2.05-.44,3.26-.52,3.25Z"/><path class="cls-1" d="M437.14,149.89c-.18-.27,.74-1.35,2.83-2.08,2.04-.73,5.37-.92,8.48,.73,3.1,1.67,4.81,4.53,5.34,6.63,.56,2.15,.18,3.51-.14,3.51-.39,.02-.69-1.2-1.57-2.84-.86-1.64-2.45-3.72-4.84-5-2.4-1.27-5.01-1.43-6.85-1.23-1.86,.18-3.04,.62-3.24,.28Z"/><path class="cls-1" d="M433.78,152.01c-.59-.41-.85-1.06-.5-1.4,.35-.34,1-.06,1.39,.54,.39,.6,.57,1.18,.43,1.33-.15,.14-.72-.06-1.31-.47Z"/><path class="cls-5" d="M357.61,210.1c-.18-.7,17.48-5.76,39.44-11.31,21.96-5.55,39.91-9.48,40.08-8.78,.18,.7-17.48,5.76-39.45,11.31-21.96,5.55-39.9,9.48-40.08,8.78Z"/><path class="cls-5" d="M463.4,136.65s-.03-.1-.07-.3c-.04-.2-.1-.5-.2-.88-.21-.76-.56-1.89-1.31-3.2-.75-1.29-1.96-2.75-3.79-3.83-.45-.28-.97-.48-1.48-.72-.55-.16-1.09-.39-1.68-.5-.59-.1-1.2-.27-1.83-.28-.63-.04-1.29-.02-1.95,.04-2.68,.23-5.57,.91-8.64,1.75-3.07,.84-6.3,1.88-9.68,3.05-6.74,2.37-14.1,5.21-21.58,8.69-.93,.44-1.85,.89-2.74,1.37-.89,.47-1.69,1.06-2.48,1.68-1.56,1.24-2.97,2.63-4.18,4.13-2.28,3.11-4.37,6.28-6.37,9.23-3.99,5.94-7.43,11.4-10.24,16.03-2.8,4.64-4.97,8.44-6.45,11.08-.73,1.3-1.3,2.32-1.71,3.04-.19,.33-.34,.58-.45,.79-.1,.18-.16,.26-.17,.26,0,0,.03-.1,.12-.28,.1-.21,.24-.48,.41-.81,.36-.71,.9-1.76,1.62-3.09,1.43-2.67,3.55-6.51,6.31-11.18,2.77-4.66,6.18-10.14,10.16-16.1,2.01-2.98,4.05-6.1,6.37-9.28,1.23-1.54,2.67-2.95,4.25-4.22,.8-.62,1.63-1.24,2.55-1.73,.91-.49,1.83-.94,2.77-1.39,7.51-3.49,14.88-6.31,21.65-8.67,3.39-1.16,6.64-2.19,9.73-3.02,3.08-.82,6-1.48,8.72-1.7,.68-.06,1.35-.07,2.01-.02,.66,.02,1.27,.2,1.88,.31,.61,.12,1.16,.36,1.72,.53,.52,.26,1.05,.47,1.51,.76,1.87,1.14,3.09,2.65,3.82,3.98,.73,1.35,1.06,2.5,1.23,3.28,.09,.39,.13,.69,.15,.9,.02,.2,.02,.31,.01,.31Z"/><g class="cls-7"><path class="cls-1" d="M467.56,142.32c.99,.33,6.42,3.71,8.72,5,2.3,1.29,4.31,3.32,4.98,5.87,.66,2.54-.07,5.22-.79,7.74-2.37,8.25-5.12,23.08-7.49,31.32-1.85-14.96-3.87-40.44-5.42-49.94"/></g><path class="cls-1" d="M393.09,261c-.02-.14,15.41-2.4,34.47-5.03,19.06-2.64,34.52-4.66,34.54-4.52,.02,.14-15.41,2.4-34.47,5.03-19.05,2.64-34.52,4.66-34.54,4.52Z"/><path class="cls-1" d="M398.01,264.78s.22-.07,.64-.14c.47-.08,1.08-.18,1.84-.3,1.6-.25,3.92-.59,6.79-.99,5.74-.8,13.67-1.79,22.45-2.83,8.74-1.04,16.66-1.99,22.46-2.68,2.83-.34,5.14-.62,6.81-.82,.76-.08,1.38-.15,1.85-.2,.42-.04,.65-.05,.65-.04,0,.02-.22,.07-.64,.14-.47,.08-1.08,.18-1.84,.3-1.6,.25-3.92,.59-6.79,.99-5.74,.8-13.67,1.79-22.45,2.83-8.74,1.04-16.65,1.99-22.46,2.68-2.83,.34-5.14,.62-6.81,.82-.76,.08-1.38,.15-1.85,.2-.42,.04-.65,.05-.65,.04Z"/><path class="cls-1" d="M408.83,267.61c-.05,0,.61-.1,1.74-.24,1.22-.16,2.85-.36,4.83-.61,4.16-.5,9.76-1.17,15.95-1.92,6.19-.7,11.8-1.33,15.96-1.81,1.98-.2,3.62-.37,4.84-.49,1.14-.1,1.78-.15,1.78-.11,0,.04-.62,.15-1.76,.31-1.22,.17-2.85,.39-4.82,.66-4.08,.53-9.71,1.23-15.94,1.96-6.23,.73-11.87,1.35-15.96,1.77-4.08,.41-6.66,.62-6.61,.49Z"/><path class="cls-1" d="M389.48,256.69c-.02-.14,16.22-2.4,36.27-5.03,20.06-2.64,36.33-4.66,36.34-4.52,.02,.14-16.22,2.4-36.28,5.03-20.05,2.64-36.32,4.66-36.34,4.52Z"/><path class="cls-1" d="M386.67,252.7c-.02-.14,16.8-2.47,37.55-5.2,20.76-2.73,37.61-4.83,37.63-4.69,.02,.14-16.79,2.47-37.56,5.2-20.76,2.73-37.6,4.83-37.62,4.68Z"/><path class="cls-1" d="M383.5,247.97c-.02-.14,17.27-2.53,38.61-5.34,21.35-2.81,38.67-4.97,38.68-4.82,.02,.14-17.27,2.53-38.62,5.34-21.34,2.81-38.66,4.97-38.68,4.82Z"/><path class="cls-1" d="M381.06,243.15c-.02-.14,17.58-2.57,39.3-5.43,21.73-2.86,39.35-5.06,39.37-4.91,.02,.14-17.57,2.57-39.3,5.43-21.72,2.86-39.35,5.06-39.37,4.91Z"/><path class="cls-1" d="M378.61,238.34c-.02-.14,17.72-2.59,39.62-5.47,21.9-2.88,39.67-5.1,39.69-4.96,.02,.14-17.72,2.59-39.62,5.47-21.9,2.88-39.67,5.1-39.69,4.96Z"/><path class="cls-1" d="M435.96,227.34c.14-.03,2.09,8.58,4.36,19.23,2.27,10.65,3.99,19.31,3.85,19.34-.14,.03-2.09-8.58-4.36-19.23-2.27-10.65-3.99-19.31-3.85-19.34Z"/><path class="cls-1" d="M442.5,226.25c.14-.03,2.09,8.58,4.36,19.23,2.27,10.65,3.99,19.31,3.85,19.34-.14,.03-2.09-8.58-4.36-19.23-2.27-10.65-3.99-19.31-3.85-19.34Z"/><path class="cls-1" d="M449.05,225.16c.14-.03,1.99,8.12,4.14,18.19,2.15,10.08,3.77,18.27,3.63,18.3-.14,.03-1.99-8.11-4.14-18.19-2.14-10.07-3.77-18.27-3.63-18.3Z"/><path class="cls-1" d="M456.15,226.64s.15,.37,.33,1.06c.18,.69,.42,1.69,.69,2.94,.56,2.49,1.24,5.94,1.91,9.77,.68,3.76,1.29,7.16,1.76,9.79,.21,1.17,.39,2.16,.53,2.97,.12,.7,.16,1.1,.13,1.1-.04,0-.15-.37-.33-1.06-.18-.69-.42-1.69-.69-2.94-.56-2.49-1.24-5.94-1.91-9.78-.68-3.76-1.29-7.16-1.76-9.79-.21-1.17-.39-2.16-.53-2.97-.12-.7-.16-1.1-.13-1.1Z"/><path class="cls-1" d="M428.39,228.69c.14-.03,2.03,8.28,4.22,18.56,2.19,10.28,3.85,18.64,3.71,18.67-.14,.03-2.03-8.28-4.22-18.56-2.19-10.28-3.85-18.64-3.71-18.67Z"/><path class="cls-1" d="M420.87,230.22c.14-.03,2.03,8.3,4.23,18.61,2.19,10.31,3.86,18.69,3.72,18.72-.14,.03-2.03-8.3-4.23-18.61-2.19-10.3-3.86-18.68-3.72-18.71Z"/><path class="cls-1" d="M413.1,230.63c.14-.03,2.02,8.23,4.19,18.44,2.18,10.22,3.82,18.52,3.68,18.55-.14,.03-2.02-8.22-4.19-18.44-2.17-10.21-3.82-18.52-3.68-18.55Z"/><path class="cls-1" d="M405.46,231.63c.14-.03,2.01,8.18,4.17,18.34,2.16,10.16,3.8,18.42,3.66,18.45-.14,.03-2.01-8.18-4.17-18.34-2.16-10.16-3.8-18.42-3.66-18.45Z"/><path class="cls-1" d="M397.93,233.12c.14-.03,1.89,7.65,3.92,17.15,2.02,9.5,3.55,17.23,3.41,17.26-.14,.03-1.89-7.65-3.92-17.15-2.02-9.5-3.55-17.23-3.41-17.26Z"/><path class="cls-1" d="M390.21,233.76c.14-.03,1.79,7.15,3.68,16.03,1.89,8.88,3.31,16.11,3.17,16.14-.14,.03-1.79-7.14-3.68-16.03-1.89-8.88-3.31-16.1-3.17-16.13Z"/><path class="cls-1" d="M382.63,234.99c.14-.03,1.16,4.2,2.28,9.44,1.12,5.24,1.91,9.52,1.77,9.55-.14,.03-1.16-4.2-2.28-9.44-1.12-5.24-1.91-9.52-1.77-9.55Z"/><path class="cls-5" d="M133.36,263.66c0-.14,49.69-.26,110.98-.26s110.99,.12,110.99,.26-49.68,.26-110.99,.26-110.98-.12-110.98-.26Z"/><path class="cls-5" d="M137.72,258.63c0-.14,47.56-.26,106.2-.26s106.21,.12,106.21,.26-47.55,.26-106.21,.26-106.2-.12-106.2-.26Z"/><path class="cls-5" d="M144.33,253.49c0-.14,44.98-.26,100.45-.26s100.46,.12,100.46,.26-44.97,.26-100.46,.26-100.45-.12-100.45-.26Z"/><path class="cls-5" d="M148.73,248.36c0-.14,42.84-.26,95.68-.26s95.69,.12,95.69,.26-42.83,.26-95.69,.26-95.68-.12-95.68-.26Z"/><path class="cls-5" d="M156.07,243.46c0-.14,39.72-.26,88.71-.26s88.72,.12,88.72,.26-39.71,.26-88.72,.26-88.71-.12-88.71-.26Z"/><path class="cls-5" d="M164.39,238.57c0-.14,35.89-.26,80.14-.26s80.15,.12,80.15,.26-35.88,.26-80.15,.26-80.14-.12-80.14-.26Z"/><rect class="cls-5" x="240.11" y="23.39" width="2.72" height="4.89"/><g class="cls-7"><path class="cls-1" d="M89.6,115.07s4.9-1.67,3.94-5.34c0,0,14.21,8.32,33.55,8.03,19.33-.29,90.17,4.04,90.17,4.04l8.12,11.21s-119.95-2.78-124.4,.12l-11.38-18.06Z"/></g><g class="cls-7"><path class="cls-1" d="M44.59,123.99c-.99,0,30.57,10.85,34.66,14.26l6.44-1.41-22.53-37.36-2.59-.6s-7.74,25.15-15.99,25.11Z"/></g><g class="cls-7"><path class="cls-1" d="M120.48,10.44c.6,0,123.55-5.26,123.35-6.87-.2-1.61-54.82-1.41-78.81,0-23.98,1.41-44.54,6.87-44.54,6.87Z"/></g><g class="cls-6"><path class="cls-1" d="M69.03,78.75l99.95-24.67,18.84-41.27-80.84,3.36c-1.32,.05-1.84,.45-2.5,1.59l-35.45,60.99Z"/></g></g></g></svg>